<svg width="25" height="25" viewBox="0 0 25 25" fill="none" xmlns="http://www.w3.org/2000/svg">
<path d="M24.4053 12.1455C24.4053 11.8272 24.2788 11.522 24.0538 11.297C23.8288 11.0719 23.5235 10.9455 23.2053 10.9455C22.887 10.9455 22.5818 11.0719 22.3567 11.297C22.1317 11.522 22.0053 11.8272 22.0053 12.1455H24.4053ZM12.4053 2.54551C12.7235 2.54551 13.0288 2.41908 13.2538 2.19404C13.4788 1.96899 13.6053 1.66377 13.6053 1.34551C13.6053 1.02725 13.4788 0.722023 13.2538 0.49698C13.0288 0.271936 12.7235 0.145508 12.4053 0.145508V2.54551ZM21.4053 21.7455H3.40527V24.1455H21.4053V21.7455ZM2.80527 21.1455V3.14551H0.405273V21.1455H2.80527ZM22.0053 12.1455V21.1455H24.4053V12.1455H22.0053ZM3.40527 2.54551H12.4053V0.145508H3.40527V2.54551ZM3.40527 21.7455C3.24614 21.7455 3.09353 21.6823 2.98101 21.5698C2.86849 21.4573 2.80527 21.3046 2.80527 21.1455H0.405273C0.405273 21.9412 0.721344 22.7042 1.28395 23.2668C1.84656 23.8294 2.60962 24.1455 3.40527 24.1455V21.7455ZM21.4053 24.1455C22.2009 24.1455 22.964 23.8294 23.5266 23.2668C24.0892 22.7042 24.4053 21.9412 24.4053 21.1455H22.0053C22.0053 21.3046 21.9421 21.4573 21.8295 21.5698C21.717 21.6823 21.5644 21.7455 21.4053 21.7455V24.1455ZM2.80527 3.14551C2.80527 2.98638 2.86849 2.83377 2.98101 2.72124C3.09353 2.60872 3.24614 2.54551 3.40527 2.54551V0.145508C2.60962 0.145508 1.84656 0.461578 1.28395 1.02419C0.721344 1.5868 0.405273 2.34986 0.405273 3.14551H2.80527Z" fill="#47245C"/>
<path d="M1.60547 18.7455L8.02127 12.8643C8.23752 12.6661 8.51887 12.5539 8.81216 12.5491C9.10545 12.5442 9.39037 12.6469 9.61307 12.8379L17.2055 19.3455M14.8055 16.3455L17.6693 13.4817C17.8735 13.2773 18.1447 13.1534 18.4329 13.1329C18.7212 13.1124 19.0071 13.1966 19.2383 13.3701L23.2055 16.3455M16.0055 4.94546H23.2055M19.6055 1.34546V8.54546" stroke="#47245C" stroke-width="2" stroke-linecap="round" stroke-linejoin="round"/>
</svg>
