<svg width="25" height="24" viewBox="0 0 25 24" fill="none" xmlns="http://www.w3.org/2000/svg">
<path d="M22.6543 0H2.6543C2.12386 0 1.61516 0.210714 1.24008 0.585786C0.86501 0.960859 0.654297 1.46957 0.654297 2V22C0.654297 22.5304 0.86501 23.0391 1.24008 23.4142C1.61516 23.7893 2.12386 24 2.6543 24H22.6543C23.1847 24 23.6934 23.7893 24.0685 23.4142C24.4436 23.0391 24.6543 22.5304 24.6543 22V2C24.6543 1.46957 24.4436 0.960859 24.0685 0.585786C23.6934 0.210714 23.1847 0 22.6543 0ZM19.6543 13H13.6543V19C13.6543 19.2652 13.5489 19.5196 13.3614 19.7071C13.1739 19.8946 12.9195 20 12.6543 20C12.3891 20 12.1347 19.8946 11.9472 19.7071C11.7597 19.5196 11.6543 19.2652 11.6543 19V13H5.6543C5.38908 13 5.13473 12.8946 4.94719 12.7071C4.75965 12.5196 4.6543 12.2652 4.6543 12C4.6543 11.7348 4.75965 11.4804 4.94719 11.2929C5.13473 11.1054 5.38908 11 5.6543 11H11.6543V5C11.6543 4.73478 11.7597 4.48043 11.9472 4.29289C12.1347 4.10536 12.3891 4 12.6543 4C12.9195 4 13.1739 4.10536 13.3614 4.29289C13.5489 4.48043 13.6543 4.73478 13.6543 5V11H19.6543C19.9195 11 20.1739 11.1054 20.3614 11.2929C20.5489 11.4804 20.6543 11.7348 20.6543 12C20.6543 12.2652 20.5489 12.5196 20.3614 12.7071C20.1739 12.8946 19.9195 13 19.6543 13Z" fill="#B92383"/>
</svg>
