<svg width="23" height="22" viewBox="0 0 23 22" fill="none" xmlns="http://www.w3.org/2000/svg">
<path d="M4.68369 5.70605H3.50722C2.88319 5.70605 2.28471 5.95395 1.84345 6.39521C1.40219 6.83647 1.1543 7.43495 1.1543 8.05898V18.6472C1.1543 19.2712 1.40219 19.8697 1.84345 20.3109C2.28471 20.7522 2.88319 21.0001 3.50722 21.0001H14.0954C14.7194 21.0001 15.3179 20.7522 15.7592 20.3109C16.2004 19.8697 16.4483 19.2712 16.4483 18.6472V17.4707" stroke="#D39013" stroke-width="2" stroke-linecap="round" stroke-linejoin="round"/>
<path d="M15.2719 3.35305L18.8013 6.88244M20.4307 5.21775C20.894 4.7544 21.1543 4.12597 21.1543 3.4707C21.1543 2.81543 20.894 2.187 20.4307 1.72365C19.9673 1.2603 19.3389 1 18.6836 1C18.0283 1 17.3999 1.2603 16.9366 1.72365L7.03662 11.5883V15.1177H10.566L20.4307 5.21775Z" stroke="#D39013" stroke-width="2" stroke-linecap="round" stroke-linejoin="round"/>
</svg>
