<svg width="21" height="21" viewBox="0 0 21 21" fill="none" xmlns="http://www.w3.org/2000/svg">
<path d="M4.67499 5.73535H3.61617C3.05454 5.73535 2.51591 5.95846 2.11878 6.35559C1.72164 6.75273 1.49854 7.29136 1.49854 7.85299V17.3824C1.49854 17.944 1.72164 18.4826 2.11878 18.8798C2.51591 19.2769 3.05454 19.5 3.61617 19.5H13.1455C13.7072 19.5 14.2458 19.2769 14.6429 18.8798C15.0401 18.4826 15.2632 17.944 15.2632 17.3824V16.3235" stroke="#D39013" stroke-width="2" stroke-linecap="round" stroke-linejoin="round"/>
<path d="M14.2057 3.61775L17.3821 6.79421M18.8486 5.29598C19.2656 4.87897 19.4999 4.31338 19.4999 3.72363C19.4999 3.13389 19.2656 2.5683 18.8486 2.15129C18.4316 1.73427 17.866 1.5 17.2763 1.5C16.6865 1.5 16.1209 1.73427 15.7039 2.15129L6.79395 11.0295V14.2059H9.9704L18.8486 5.29598Z" stroke="#D39013" stroke-width="2" stroke-linecap="round" stroke-linejoin="round"/>
</svg>
