<svg width="23" height="17" viewBox="0 0 23 17" fill="none" xmlns="http://www.w3.org/2000/svg">
<path d="M14.4985 8.5C14.4985 9.29565 14.1825 10.0587 13.6199 10.6213C13.0572 11.1839 12.2942 11.5 11.4985 11.5C10.7029 11.5 9.93982 11.1839 9.37721 10.6213C8.81461 10.0587 8.49854 9.29565 8.49854 8.5C8.49854 7.70435 8.81461 6.94129 9.37721 6.37868C9.93982 5.81607 10.7029 5.5 11.4985 5.5C12.2942 5.5 13.0572 5.81607 13.6199 6.37868C14.1825 6.94129 14.4985 7.70435 14.4985 8.5Z" stroke="black" stroke-width="1.5" stroke-linecap="round" stroke-linejoin="round"/>
<path d="M1.49854 8.5C3.09854 4.403 6.83454 1.5 11.4985 1.5C16.1625 1.5 19.8985 4.403 21.4985 8.5C19.8985 12.597 16.1625 15.5 11.4985 15.5C6.83454 15.5 3.09854 12.597 1.49854 8.5Z" stroke="black" stroke-width="1.5" stroke-linecap="round" stroke-linejoin="round"/>
</svg>
