<svg width="78" height="97" viewBox="0 0 78 97" fill="none" xmlns="http://www.w3.org/2000/svg">
<path d="M48.75 0H9.75C7.16414 0 4.68419 1.02196 2.85571 2.84106C1.02723 4.66017 0 7.1274 0 9.7V87.3C0 89.8726 1.02723 92.3398 2.85571 94.1589C4.68419 95.978 7.16414 97 9.75 97H68.25C70.8359 97 73.3158 95.978 75.1443 94.1589C76.9728 92.3398 78 89.8726 78 87.3V29.1L48.75 0ZM26.8028 68.8215C25.2964 70.228 23.0734 70.8585 20.4847 70.8585C19.9827 70.8679 19.4807 70.8387 18.9832 70.7712V77.6873H14.625V58.5977C16.5919 58.3067 18.5792 58.1737 20.5676 58.2C23.283 58.2 25.2135 58.7141 26.5151 59.7472C27.7534 60.7268 28.5919 62.3322 28.5919 64.2237C28.587 66.1249 27.9533 67.7302 26.8028 68.8215ZM45.3619 75.3932C43.3144 77.0859 40.1992 77.891 36.3919 77.891C34.1104 77.891 32.4967 77.7455 31.3999 77.6V58.6026C33.3675 58.3179 35.3542 58.1833 37.3425 58.2C41.0329 58.2 43.4314 58.8596 45.3034 60.2661C47.3265 61.7599 48.594 64.1413 48.594 67.5605C48.594 71.261 47.2339 73.817 45.3619 75.3932ZM63.375 61.9345H55.9065V66.3528H62.8875V69.9128H55.9065V77.6921H51.4897V58.3455H63.375V61.9345ZM48.75 33.95H43.875V9.7L68.25 33.95H48.75Z" fill="#47245C"/>
</svg>
