<svg width="19" height="21" viewBox="0 0 19 21" fill="none" xmlns="http://www.w3.org/2000/svg">
<path d="M1.5 5.5H17.5M7.5 9.5V15.5M11.5 9.5V15.5M2.5 5.5L3.5 17.5C3.5 18.0304 3.71071 18.5391 4.08579 18.9142C4.46086 19.2893 4.96957 19.5 5.5 19.5H13.5C14.0304 19.5 14.5391 19.2893 14.9142 18.9142C15.2893 18.5391 15.5 18.0304 15.5 17.5L16.5 5.5M6.5 5.5V2.5C6.5 2.23478 6.60536 1.98043 6.79289 1.79289C6.98043 1.60536 7.23478 1.5 7.5 1.5H11.5C11.7652 1.5 12.0196 1.60536 12.2071 1.79289C12.3946 1.98043 12.5 2.23478 12.5 2.5V5.5" stroke="#D71344" stroke-width="2" stroke-linecap="round" stroke-linejoin="round"/>
</svg>
